<?xml version="1.0" encoding="utf-8"?>
<!-- Generator: Adobe Illustrator 19.2.0, SVG Export Plug-In . SVG Version: 6.00 Build 0)  -->
<!DOCTYPE svg PUBLIC "-//W3C//DTD SVG 1.1//EN" "http://www.w3.org/Graphics/SVG/1.1/DTD/svg11.dtd">
<svg version="1.1" id="Layer_1" xmlns="http://www.w3.org/2000/svg" xmlns:xlink="http://www.w3.org/1999/xlink" x="0px" y="0px"
	 viewBox="0 0 390.7 244.5" style="enable-background:new 0 0 390.7 244.5;" xml:space="preserve">
<style type="text/css">
	.st0{fill:#A71E31;}
</style>
<g>
	<path d="M353.8,80.2l0-57.1l-10.1,0l-121,0l-0.1,57.1c0,0,6.6,0,8.7,0c-9.6,8.2-14.7,12.6-19.5,16.7c-4.7-4.1-9.7-8.5-19.1-16.8
		c0.6,0,13.4,0,13.4,0l-0.1-57l-169,0l0.1,57.1c0,0,27.4,0,33,0c5.1,4.5,77.7,67.5,84,72.9c0,2.4,0,3.5,0,7c-8.8,0-29.7,0-29.7,0
		l0,61.1l142.3,0l0-61.1c0,0-20.4-0.1-29-0.1c0-4.1,0-5.6,0-8.2c6.3-5.4,78.5-67.3,83.7-71.7C326.7,80.2,353.8,80.2,353.8,80.2z
		 M227.5,147.3l0,23l29,0.1l0,40.9l-122,0l0-40.9l29.7,0l0-21.8L73.8,70.2l-26.6,0l-0.1-36.8l148.8,0L196,70l-30,0l45.8,40.3
		l46.9-40.3h-25.9l0.1-36.8l110.9,0l0,36.8h-26.2L227.5,147.3z"/>
	<path class="st0" d="M238.2,38.7c0,6.5,0,19.4-0.1,25.9c6.8,0,35.2,0,35.2,0l-61.7,53l-60.2-53c0,0,31.7,0,39,0
		c0-6.6,0-19.3-0.1-25.8c-9.7,0-128,0-137.8,0c0,6.6,0,19.4,0.1,25.9c6.9,0,23.2,0,23.2,0l93.7,81.4l0,29.7c0,0-22.4,0-29.7,0
		c0,6.9,0,23,0,30c9.5,0,101.6,0,111.1,0c0-6.9,0-23.1,0-30c-7.2,0-29-0.1-29-0.1l0-31l93.5-80.1c0,0,15.9,0,22.7,0
		c0-6.5,0-19.4,0-25.9C328.8,38.7,247.5,38.7,238.2,38.7z"/>
</g>
</svg>
